<?xml version="1.0" encoding="UTF-8"?> <svg xmlns="http://www.w3.org/2000/svg" width="261.3" height="92" xml:space="preserve"> <g> <title>Layer 1</title> <path id="svg_1" fill="#000000" d="m23,3.9l0,82.9l-18.8,0l0,-82.9l18.8,0z" class="st0"></path> <path id="svg_2" fill="#000000" d="m55.3,19.7l-22.3,0l0,-15.8l225,0l0,15.7l-183.9,0l0,67.2l-18.8,0l0,-67.1z" class="st0"></path> <path id="svg_3" fill="#000000" d="m219.39999,72c3.2,1.9 9.7,4.2 14.8,4.2c5.2,0 7.29999,-1.8 7.29999,-4.6c0,-2.8 -1.7,-4.2 -8.09999,-6.3c-11.40001,-3.8 -15.8,-10 -15.7,-16.6c0,-10.2 8.79999,-18 22.39999,-18c6.39999,0 12.2,1.5 15.5,3.2l-3,11.8c-2.5,-1.4 -7.2,-3.2 -11.89999,-3.2c-4.20001,0 -6.5,1.7 -6.5,4.5c0,2.6 2.09999,3.9 8.89999,6.3c10.5,3.6 14.90001,8.9 14.99998,17c0,10.2 -8.09999,17.8 -23.89998,17.8c-7.20001,0 -13.60001,-1.6 -17.8,-3.8l3,-12.3z" class="st0"></path> </g> </svg> 