<?xml version="1.0" encoding="UTF-8"?> <!-- Generator: Adobe Illustrator 21.1.0, SVG Export Plug-In . SVG Version: 6.00 Build 0) --> <svg xmlns="http://www.w3.org/2000/svg" xmlns:xlink="http://www.w3.org/1999/xlink" id="Слой_1" x="0px" y="0px" viewBox="0 0 261.3 92" style="enable-background:new 0 0 261.3 92;" xml:space="preserve"> <style type="text/css"> .st0{fill:#FFFFFF;} </style> <path class="st0" d="M23,3.9v82.9H4.2V3.9H23z"></path> <path class="st0" d="M55.3,19.7H33V3.9h225v15.7H74.1v67.2H55.3V19.7z"></path> <path class="st0" d="M219.4,72c3.2,1.9,9.7,4.2,14.8,4.2c5.2,0,7.3-1.8,7.3-4.6c0-2.8-1.7-4.2-8.1-6.3c-11.4-3.8-15.8-10-15.7-16.6 c0-10.2,8.8-18,22.4-18c6.4,0,12.2,1.5,15.5,3.2l-3,11.8c-2.5-1.4-7.2-3.2-11.9-3.2c-4.2,0-6.5,1.7-6.5,4.5c0,2.6,2.1,3.9,8.9,6.3 c10.5,3.6,14.9,8.9,15,17c0,10.2-8.1,17.8-23.9,17.8c-7.2,0-13.6-1.6-17.8-3.8L219.4,72z"></path> </svg> 